<?xml version="1.0" encoding="utf-8"?>
<!-- Generator: Adobe Illustrator 22.0.1, SVG Export Plug-In . SVG Version: 6.00 Build 0)  -->
<svg version="1.1" id="Capa_1" xmlns="http://www.w3.org/2000/svg" xmlns:xlink="http://www.w3.org/1999/xlink" x="0px" y="0px"
	 viewBox="0 0 334 219.5" style="enable-background:new 0 0 334 219.5;" xml:space="preserve">
<style type="text/css">
	.st0{fill:#3A3A3A;}
	.st1{fill:#008E99;}
</style>
<g>
	<polygon class="st0" points="287.5,11.5 232.1,137.7 179,11.5 147,11.5 147,12.3 232.1,206.2 292.5,72.1 292.5,205.9 319.2,205.9 
		319.2,11.5 	"/>
</g>
<g>
	<path class="st1" d="M118,97.4v24.8h32v39.5c-9.5,9.5-27.8,17.2-41.7,17.2c-15.9,0-30.2-5.3-41.7-14.2
		C49.7,151.5,39,130.5,39,107.2c0-36.7,30-69,69.3-69c3.4,0,6.7,0.2,9.8,0.6V11.6c-3.2-0.3-6.5-0.4-9.8-0.4
		c-54.5,0-98.7,41.7-98.7,96c0,33.5,16.7,63.1,42.2,80.9c16,11.2,35.5,17.8,56.5,17.8c14.5,0,29.5-4.5,41.7-9.7v9.7h27.3V97.4H118z"
		/>
</g>
<polygon class="st0" points="147.1,83.6 147.1,40.6 167.1,83.6 "/>
</svg>
