<?xml version="1.0"?>
<svg xmlns="http://www.w3.org/2000/svg" xmlns:xlink="http://www.w3.org/1999/xlink" version="1.1" id="Capa_1" x="0px" y="0px" viewBox="0 0 512.533 512.533" style="enable-background:new 0 0 512.533 512.533;" xml:space="preserve" width="512px" height="512px" class=""><g><path style="fill:#008E99" d="M406.6,62.4c-83.2-83.2-217.6-83.2-299.733,0c-83.2,83.2-83.2,216.533,0,299.733l149.333,150.4  L405.533,363.2C488.733,280,488.733,145.6,406.6,62.4z" data-original="#F3705B" class="" data-old_color="#008E00"/><path style="fill:#F3F3F3;" d="M256.2,70.933c-77.867,0-141.867,62.933-141.867,141.867c0,77.867,62.933,141.867,141.867,141.867  c77.867,0,141.867-62.933,141.867-141.867S334.066,70.933,256.2,70.933z" data-original="#F3F3F3" class=""/><polygon style="fill:#D1C9B6" points="256.2,112.533 176.2,191.467 176.2,305.6 336.2,305.6 336.2,191.467 " data-original="#FFD15D" class="active-path" data-old_color="#D2CAB8"/><g>
	<rect x="229.533" y="241.6" style="fill:#435B6C" width="54.4" height="64" data-original="#435B6C" class="" data-old_color="#4C00FF"/>
	<path style="fill:#435B6C" d="M356.466,195.733L264.733,104c-4.267-4.267-11.733-4.267-17.067,0l-91.733,91.733   c-4.267,4.267-4.267,11.733,0,17.067c4.267,4.267,11.733,4.267,17.067,0l83.2-84.267l83.2,83.2c2.133,2.133,5.333,3.2,8.533,3.2   c3.2,0,6.4-1.067,8.533-3.2C360.733,207.467,360.733,200,356.466,195.733z" data-original="#435B6C" class="" data-old_color="#4C00FF"/>
</g></g> </svg>
